{"title":"21 Jump Street 1080p AC3 5.1ch 4GB M2TS","uid":7343444,"size":4284506158,"categoryP":"video","categoryS":"hd___movies","magnet":"?xt=urn:btih:63b8a4885270ad99dff7dc678fbcfeab98d0bb98&amp;dn=21+Jump+Street+1080p+AC3+5.1ch+4GB+M2TS&amp;tr=udp%3A%2F%2Ftracker.openbittorrent.com%3A80&amp;tr=udp%3A%2F%2Fopen.demonii.com%3A1337&amp;tr=udp%3A%2F%2Ftracker.coppersurfer.tk%3A6969&amp;tr=udp%3A%2F%2Fexodus.desync.com%3A6969","seeders":0,"leechers":1,"uploader":null,"files":-1,"time":1339333565,"description":"21 JUMP STREET.m2ts\nFormat : BDAV\nFormat/Info : Blu-ray Video\nFile size : 3.99 GiB\nDuration : 1h 49mn\nOverall bit rate mode : Variable\nOverall bit rate : 5 211 Kbps\nMaximum Overall bit rate : 35.5 Mbps\n\nVideo\nID : 4113 (0x1011)\nMenu ID : 1 (0x1)\nFormat : AVC\nFormat/Info : Advanced Video Codec\nFormat profile : &lt;a class=&quot;__cf_email__&quot; href=&quot;/cdn-cgi/l/email-protection&quot; data-cfemail=&quot;7139181619313d455f41&quot;&gt;[email&amp;#160;protected]&lt;/a&gt;&lt;script cf-hash='f9e31' type=&quot;text/javascript&quot;&gt;\n/* &lt;![CDATA[ */!function(){try{var t=&quot;currentScript&quot;in document?document.currentScript:function(){for(var t=document.getElementsByTagName(&quot;script&quot;),e=t.length;e--;)if(t[e].getAttribute(&quot;cf-hash&quot;))return t[e]}();if(t&amp;&amp;t.previousSibling){var e,r,n,i,c=t.previousSibling,a=c.getAttribute(&quot;data-cfemail&quot;);if(a){for(e=&quot;&quot;,r=parseInt(a.substr(0,2),16),n=2;a.length-n;n+=2)i=parseInt(a.substr(n,2),16)^r,e+=String.fromCharCode(i);e=document.createTextNode(e),c.parentNode.replaceChild(e,c)}}}catch(u){}}();/* ]]&gt; */&lt;/script&gt;\nFormat settings, CABAC : Yes\nFormat settings, ReFrames : 3 frames\nCodec ID : 27\nDuration : 1h 49mn\nBit rate mode : Variable\nBit rate : 4 255 Kbps\nMaximum bit rate : 25.0 Mbps\nWidth : 1 920 pixels\nHeight : 1 080 pixels\nDisplay aspect ratio : 16:9\nFrame rate : 23.976 fps\nColor space : YUV\nChroma subsampling : 4:2:0\nBit depth : 8 bits\nScan type : Progressive\nBits/(Pixel*Frame) : 0.086\nStream size : 3.34 GiB (84%)\nWriting library : x264 core\n\nAudio\nID : 4352 (0x1100)\nMenu ID : 1 (0x1)\nFormat : AC-3\nFormat/Info : Audio Coding 3\nCodec ID : 129\nDuration : 1h 49mn\nBit rate : 640 Kbps\nChannel(s) : 5 channels\nSampling rate : 48.0 KHz\nCompression mode : Lossy\nStream size : 502 MiB (12%)\n\n\n &lt;a href=&quot;\nhttp://thepiratebay.se/search/4gb%20m2ts/0/99/0&quot; rel=&quot;nofollow&quot; target=&quot;_NEW&quot;&gt;\nhttp://thepiratebay.se/search/4gb%20m2ts/0/99/0&lt;/a&gt;","torrent":{"xt":"urn:btih:63b8a4885270ad99dff7dc678fbcfeab98d0bb98","amp;dn":"21+Jump+Street+1080p+AC3+5.1ch+4GB+M2TS","amp;tr":["udp%3A%2F%2Ftracker.openbittorrent.com%3A80","udp%3A%2F%2Fopen.demonii.com%3A1337","udp%3A%2F%2Ftracker.coppersurfer.tk%3A6969","udp%3A%2F%2Fexodus.desync.com%3A6969"],"infoHash":"63b8a4885270ad99dff7dc678fbcfeab98d0bb98","infoHashBuffer":{"type":"Buffer","data":[99,184,164,136,82,112,173,153,223,247,220,103,143,188,254,171,152,208,187,152]},"announce":[],"urlList":[]}}